<mxfile host="app.diagrams.net" agent="Mozilla/5.0 (Macintosh; Intel Mac OS X 10_15_7) AppleWebKit/537.36 (KHTML, like Gecko) Chrome/136.0.0.0 Safari/537.36" version="27.0.9">
  <diagram name="第 1 页" id="XuF_GehCh8hmvKTw_JIp">
    <mxGraphModel dx="1002" dy="605" grid="1" gridSize="10" guides="1" tooltips="1" connect="1" arrows="1" fold="1" page="1" pageScale="1" pageWidth="827" pageHeight="1169" math="0" shadow="0">
      <root>
        <mxCell id="0" />
        <mxCell id="1" parent="0" />
        <mxCell id="TcKVNV-74ztxmhE1fLao-3" value="" style="edgeStyle=orthogonalEdgeStyle;rounded=0;orthogonalLoop=1;jettySize=auto;html=1;" edge="1" parent="1" source="TcKVNV-74ztxmhE1fLao-1" target="TcKVNV-74ztxmhE1fLao-2">
          <mxGeometry relative="1" as="geometry" />
        </mxCell>
        <mxCell id="TcKVNV-74ztxmhE1fLao-1" value="&lt;font style=&quot;font-size: 20px;&quot;&gt;源代码&lt;/font&gt;" style="rounded=1;whiteSpace=wrap;html=1;fillColor=#d5e8d4;strokeColor=#82b366;" vertex="1" parent="1">
          <mxGeometry x="120" y="50" width="120" height="60" as="geometry" />
        </mxCell>
        <mxCell id="TcKVNV-74ztxmhE1fLao-5" value="" style="edgeStyle=orthogonalEdgeStyle;rounded=0;orthogonalLoop=1;jettySize=auto;html=1;" edge="1" parent="1" source="TcKVNV-74ztxmhE1fLao-2">
          <mxGeometry relative="1" as="geometry">
            <mxPoint x="180" y="330" as="targetPoint" />
          </mxGeometry>
        </mxCell>
        <mxCell id="TcKVNV-74ztxmhE1fLao-2" value="&lt;font style=&quot;font-size: 20px;&quot;&gt;词法/语法分析&lt;/font&gt;" style="rounded=1;whiteSpace=wrap;html=1;fillColor=#d5e8d4;strokeColor=#82b366;" vertex="1" parent="1">
          <mxGeometry x="115" y="190" width="130" height="70" as="geometry" />
        </mxCell>
        <mxCell id="TcKVNV-74ztxmhE1fLao-7" value="" style="edgeStyle=orthogonalEdgeStyle;rounded=0;orthogonalLoop=1;jettySize=auto;html=1;" edge="1" parent="1" target="TcKVNV-74ztxmhE1fLao-6">
          <mxGeometry relative="1" as="geometry">
            <mxPoint x="180" y="390" as="sourcePoint" />
          </mxGeometry>
        </mxCell>
        <mxCell id="TcKVNV-74ztxmhE1fLao-6" value="&lt;font style=&quot;font-size: 20px;&quot;&gt;目标代码&lt;/font&gt;" style="rounded=1;whiteSpace=wrap;html=1;fillColor=#d5e8d4;strokeColor=#82b366;" vertex="1" parent="1">
          <mxGeometry x="120" y="330" width="120" height="60" as="geometry" />
        </mxCell>
        <mxCell id="TcKVNV-74ztxmhE1fLao-9" value="&lt;font style=&quot;font-size: 18px;&quot;&gt;解释器&lt;/font&gt;" style="text;html=1;align=center;verticalAlign=middle;resizable=0;points=[];autosize=1;strokeColor=none;fillColor=none;" vertex="1" parent="1">
          <mxGeometry x="140" y="10" width="80" height="40" as="geometry" />
        </mxCell>
        <mxCell id="TcKVNV-74ztxmhE1fLao-24" value="" style="edgeStyle=orthogonalEdgeStyle;rounded=0;orthogonalLoop=1;jettySize=auto;html=1;" edge="1" parent="1" source="TcKVNV-74ztxmhE1fLao-11" target="TcKVNV-74ztxmhE1fLao-20">
          <mxGeometry relative="1" as="geometry" />
        </mxCell>
        <mxCell id="TcKVNV-74ztxmhE1fLao-11" value="&lt;font style=&quot;font-size: 20px;&quot;&gt;源代码&lt;/font&gt;" style="rounded=1;whiteSpace=wrap;html=1;fillColor=#d5e8d4;strokeColor=#82b366;" vertex="1" parent="1">
          <mxGeometry x="354" y="50" width="120" height="60" as="geometry" />
        </mxCell>
        <mxCell id="TcKVNV-74ztxmhE1fLao-14" value="" style="edgeStyle=orthogonalEdgeStyle;rounded=0;orthogonalLoop=1;jettySize=auto;html=1;" edge="1" parent="1" target="TcKVNV-74ztxmhE1fLao-16">
          <mxGeometry relative="1" as="geometry">
            <mxPoint x="414" y="390" as="sourcePoint" />
          </mxGeometry>
        </mxCell>
        <mxCell id="TcKVNV-74ztxmhE1fLao-16" value="&lt;font style=&quot;font-size: 20px;&quot;&gt;目标代码&lt;/font&gt;" style="rounded=1;whiteSpace=wrap;html=1;fillColor=#d5e8d4;strokeColor=#82b366;" vertex="1" parent="1">
          <mxGeometry x="354" y="440" width="120" height="60" as="geometry" />
        </mxCell>
        <mxCell id="TcKVNV-74ztxmhE1fLao-17" value="&lt;font style=&quot;font-size: 18px;&quot;&gt;编译器&lt;/font&gt;" style="text;html=1;align=center;verticalAlign=middle;resizable=0;points=[];autosize=1;strokeColor=none;fillColor=none;" vertex="1" parent="1">
          <mxGeometry x="374" y="10" width="80" height="40" as="geometry" />
        </mxCell>
        <mxCell id="TcKVNV-74ztxmhE1fLao-27" value="" style="edgeStyle=orthogonalEdgeStyle;rounded=0;orthogonalLoop=1;jettySize=auto;html=1;" edge="1" parent="1" source="TcKVNV-74ztxmhE1fLao-18" target="TcKVNV-74ztxmhE1fLao-26">
          <mxGeometry relative="1" as="geometry" />
        </mxCell>
        <mxCell id="TcKVNV-74ztxmhE1fLao-18" value="&lt;font style=&quot;font-size: 20px;&quot;&gt;中间代码&lt;/font&gt;" style="rounded=1;whiteSpace=wrap;html=1;fillColor=#fff2cc;strokeColor=#d6b656;" vertex="1" parent="1">
          <mxGeometry x="354" y="240" width="120" height="60" as="geometry" />
        </mxCell>
        <mxCell id="TcKVNV-74ztxmhE1fLao-25" value="" style="edgeStyle=orthogonalEdgeStyle;rounded=0;orthogonalLoop=1;jettySize=auto;html=1;" edge="1" parent="1" source="TcKVNV-74ztxmhE1fLao-20" target="TcKVNV-74ztxmhE1fLao-18">
          <mxGeometry relative="1" as="geometry" />
        </mxCell>
        <mxCell id="TcKVNV-74ztxmhE1fLao-20" value="&lt;font style=&quot;font-size: 20px;&quot;&gt;词法/语法分析&lt;/font&gt;" style="rounded=1;whiteSpace=wrap;html=1;fillColor=#d5e8d4;strokeColor=#82b366;" vertex="1" parent="1">
          <mxGeometry x="349" y="140" width="130" height="70" as="geometry" />
        </mxCell>
        <mxCell id="TcKVNV-74ztxmhE1fLao-26" value="&lt;font style=&quot;font-size: 20px;&quot;&gt;语义分析&lt;/font&gt;&lt;div&gt;&lt;font style=&quot;font-size: 20px;&quot;&gt;与优化&lt;/font&gt;&lt;/div&gt;" style="rounded=1;whiteSpace=wrap;html=1;fillColor=#d5e8d4;strokeColor=#82b366;" vertex="1" parent="1">
          <mxGeometry x="354" y="340" width="120" height="60" as="geometry" />
        </mxCell>
      </root>
    </mxGraphModel>
  </diagram>
</mxfile>
